<svg width="128" height="15" viewBox="0 0 128 15" fill="none" xmlns="http://www.w3.org/2000/svg">
<path d="M0.66 7.46C0.66 6.07333 0.96 4.84 1.56 3.76C2.16 2.66667 2.99333 1.82 4.06 1.22C5.14 0.606666 6.36 0.299999 7.72 0.299999C9.38667 0.299999 10.8133 0.739999 12 1.62C13.1867 2.5 13.98 3.7 14.38 5.22H10.62C10.34 4.63333 9.94 4.18667 9.42 3.88C8.91333 3.57333 8.33333 3.42 7.68 3.42C6.62667 3.42 5.77333 3.78667 5.12 4.52C4.46667 5.25333 4.14 6.23333 4.14 7.46C4.14 8.68667 4.46667 9.66667 5.12 10.4C5.77333 11.1333 6.62667 11.5 7.68 11.5C8.33333 11.5 8.91333 11.3467 9.42 11.04C9.94 10.7333 10.34 10.2867 10.62 9.7H14.38C13.98 11.22 13.1867 12.42 12 13.3C10.8133 14.1667 9.38667 14.6 7.72 14.6C6.36 14.6 5.14 14.3 4.06 13.7C2.99333 13.0867 2.16 12.24 1.56 11.16C0.96 10.08 0.66 8.84667 0.66 7.46ZM14.5944 8.9C14.5944 7.75333 14.8077 6.74667 15.2344 5.88C15.6744 5.01333 16.2677 4.34667 17.0144 3.88C17.761 3.41333 18.5944 3.18 19.5144 3.18C20.301 3.18 20.9877 3.34 21.5744 3.66C22.1744 3.98 22.6344 4.4 22.9544 4.92V3.34H26.3744V14.5H22.9544V12.92C22.621 13.44 22.1544 13.86 21.5544 14.18C20.9677 14.5 20.281 14.66 19.4944 14.66C18.5877 14.66 17.761 14.4267 17.0144 13.96C16.2677 13.48 15.6744 12.8067 15.2344 11.94C14.8077 11.06 14.5944 10.0467 14.5944 8.9ZM22.9544 8.92C22.9544 8.06667 22.7144 7.39333 22.2344 6.9C21.7677 6.40667 21.1944 6.16 20.5144 6.16C19.8344 6.16 19.2544 6.40667 18.7744 6.9C18.3077 7.38 18.0744 8.04667 18.0744 8.9C18.0744 9.75333 18.3077 10.4333 18.7744 10.94C19.2544 11.4333 19.8344 11.68 20.5144 11.68C21.1944 11.68 21.7677 11.4333 22.2344 10.94C22.7144 10.4467 22.9544 9.77333 22.9544 8.92ZM33.8686 11.6V14.5H32.1286C30.8886 14.5 29.9219 14.2 29.2286 13.6C28.5353 12.9867 28.1886 11.9933 28.1886 10.62V6.18H26.8286V3.34H28.1886V0.62H31.6086V3.34H33.8486V6.18H31.6086V10.66C31.6086 10.9933 31.6886 11.2333 31.8486 11.38C32.0086 11.5267 32.2753 11.6 32.6486 11.6H33.8686ZM33.8936 8.9C33.8936 7.75333 34.1069 6.74667 34.5336 5.88C34.9736 5.01333 35.5669 4.34667 36.3136 3.88C37.0603 3.41333 37.8936 3.18 38.8136 3.18C39.6003 3.18 40.2869 3.34 40.8736 3.66C41.4736 3.98 41.9336 4.4 42.2536 4.92V3.34H45.6736V14.5H42.2536V12.92C41.9203 13.44 41.4536 13.86 40.8536 14.18C40.2669 14.5 39.5803 14.66 38.7936 14.66C37.8869 14.66 37.0603 14.4267 36.3136 13.96C35.5669 13.48 34.9736 12.8067 34.5336 11.94C34.1069 11.06 33.8936 10.0467 33.8936 8.9ZM42.2536 8.92C42.2536 8.06667 42.0136 7.39333 41.5336 6.9C41.0669 6.40667 40.4936 6.16 39.8136 6.16C39.1336 6.16 38.5536 6.40667 38.0736 6.9C37.6069 7.38 37.3736 8.04667 37.3736 8.9C37.3736 9.75333 37.6069 10.4333 38.0736 10.94C38.5536 11.4333 39.1336 11.68 39.8136 11.68C40.4936 11.68 41.0669 11.4333 41.5336 10.94C42.0136 10.4467 42.2536 9.77333 42.2536 8.92ZM53.1678 11.6V14.5H51.4278C50.1878 14.5 49.2211 14.2 48.5278 13.6C47.8345 12.9867 47.4878 11.9933 47.4878 10.62V6.18H46.1278V3.34H47.4878V0.62H50.9078V3.34H53.1478V6.18H50.9078V10.66C50.9078 10.9933 50.9878 11.2333 51.1478 11.38C51.3078 11.5267 51.5745 11.6 51.9478 11.6H53.1678ZM53.1928 8.9C53.1928 7.75333 53.4061 6.74667 53.8328 5.88C54.2728 5.01333 54.8661 4.34667 55.6128 3.88C56.3595 3.41333 57.1928 3.18 58.1128 3.18C58.8995 3.18 59.5861 3.34 60.1728 3.66C60.7728 3.98 61.2328 4.4 61.5528 4.92V3.34H64.9728V14.5H61.5528V12.92C61.2195 13.44 60.7528 13.86 60.1528 14.18C59.5661 14.5 58.8795 14.66 58.0928 14.66C57.1861 14.66 56.3595 14.4267 55.6128 13.96C54.8661 13.48 54.2728 12.8067 53.8328 11.94C53.4061 11.06 53.1928 10.0467 53.1928 8.9ZM61.5528 8.92C61.5528 8.06667 61.3128 7.39333 60.8328 6.9C60.3661 6.40667 59.7928 6.16 59.1128 6.16C58.4328 6.16 57.8528 6.40667 57.3728 6.9C56.9061 7.38 56.6728 8.04667 56.6728 8.9C56.6728 9.75333 56.9061 10.4333 57.3728 10.94C57.8528 11.4333 58.4328 11.68 59.1128 11.68C59.7928 11.68 60.3661 11.4333 60.8328 10.94C61.3128 10.4467 61.5528 9.77333 61.5528 8.92ZM73.047 3.22C74.3537 3.22 75.3937 3.64667 76.167 4.5C76.9537 5.34 77.347 6.5 77.347 7.98V14.5H73.947V8.44C73.947 7.69333 73.7537 7.11333 73.367 6.7C72.9804 6.28667 72.4604 6.08 71.807 6.08C71.1537 6.08 70.6337 6.28667 70.247 6.7C69.8604 7.11333 69.667 7.69333 69.667 8.44V14.5H66.247V3.34H69.667V4.82C70.0137 4.32667 70.4804 3.94 71.067 3.66C71.6537 3.36667 72.3137 3.22 73.047 3.22Z" fill="#2D3047"/>
<path d="M92.2619 4.98C92.2619 5.79333 92.0752 6.54 91.7019 7.22C91.3285 7.88667 90.7552 8.42667 89.9819 8.84C89.2085 9.25333 88.2485 9.46 87.1019 9.46H84.9819V14.5H81.5619V0.46H87.1019C88.2219 0.46 89.1685 0.653333 89.9419 1.04C90.7152 1.42667 91.2952 1.96 91.6819 2.64C92.0685 3.32 92.2619 4.1 92.2619 4.98ZM86.8419 6.74C87.4952 6.74 87.9819 6.58667 88.3019 6.28C88.6219 5.97333 88.7819 5.54 88.7819 4.98C88.7819 4.42 88.6219 3.98667 88.3019 3.68C87.9819 3.37333 87.4952 3.22 86.8419 3.22H84.9819V6.74H86.8419ZM103.362 8.74C103.362 9.06 103.342 9.39333 103.302 9.74H95.5623C95.6157 10.4333 95.8357 10.9667 96.2223 11.34C96.6223 11.7 97.109 11.88 97.6823 11.88C98.5357 11.88 99.129 11.52 99.4623 10.8H103.102C102.916 11.5333 102.576 12.1933 102.082 12.78C101.602 13.3667 100.996 13.8267 100.262 14.16C99.529 14.4933 98.709 14.66 97.8023 14.66C96.709 14.66 95.7357 14.4267 94.8823 13.96C94.029 13.4933 93.3623 12.8267 92.8823 11.96C92.4023 11.0933 92.1623 10.08 92.1623 8.92C92.1623 7.76 92.3957 6.74667 92.8623 5.88C93.3423 5.01333 94.009 4.34667 94.8623 3.88C95.7157 3.41333 96.6957 3.18 97.8023 3.18C98.8823 3.18 99.8423 3.40667 100.682 3.86C101.522 4.31333 102.176 4.96 102.642 5.8C103.122 6.64 103.362 7.62 103.362 8.74ZM99.8623 7.84C99.8623 7.25333 99.6623 6.78667 99.2623 6.44C98.8623 6.09333 98.3623 5.92 97.7623 5.92C97.189 5.92 96.7023 6.08667 96.3023 6.42C95.9157 6.75333 95.6757 7.22667 95.5823 7.84H99.8623ZM110.767 3.22C112.073 3.22 113.113 3.64667 113.887 4.5C114.673 5.34 115.067 6.5 115.067 7.98V14.5H111.667V8.44C111.667 7.69333 111.473 7.11333 111.087 6.7C110.7 6.28667 110.18 6.08 109.527 6.08C108.873 6.08 108.353 6.28667 107.967 6.7C107.58 7.11333 107.387 7.69333 107.387 8.44V14.5H103.967V3.34H107.387V4.82C107.733 4.32667 108.2 3.94 108.787 3.66C109.373 3.36667 110.033 3.22 110.767 3.22ZM115.563 8.9C115.563 7.75333 115.776 6.74667 116.203 5.88C116.643 5.01333 117.236 4.34667 117.983 3.88C118.73 3.41333 119.563 3.18 120.483 3.18C121.27 3.18 121.956 3.34 122.543 3.66C123.143 3.98 123.603 4.4 123.923 4.92V3.34H127.343V14.5H123.923V12.92C123.59 13.44 123.123 13.86 122.523 14.18C121.936 14.5 121.25 14.66 120.463 14.66C119.556 14.66 118.73 14.4267 117.983 13.96C117.236 13.48 116.643 12.8067 116.203 11.94C115.776 11.06 115.563 10.0467 115.563 8.9ZM123.923 8.92C123.923 8.06667 123.683 7.39333 123.203 6.9C122.736 6.40667 122.163 6.16 121.483 6.16C120.803 6.16 120.223 6.40667 119.743 6.9C119.276 7.38 119.043 8.04667 119.043 8.9C119.043 9.75333 119.276 10.4333 119.743 10.94C120.223 11.4333 120.803 11.68 121.483 11.68C122.163 11.68 122.736 11.4333 123.203 10.94C123.683 10.4467 123.923 9.77333 123.923 8.92Z" fill="#1B998B"/>
</svg>
