<svg width="91" height="22" viewBox="0 0 91 22" fill="none" xmlns="http://www.w3.org/2000/svg">
<path fill-rule="evenodd" clip-rule="evenodd" d="M9.5 5C7.97225 5 7.781 5.0068 7.181 5.036C6.58212 5.0652 6.173 5.1668 5.81525 5.3152C5.44025 5.4656 5.10012 5.7016 4.81887 6.0072C4.53283 6.30685 4.31145 6.6694 4.17013 7.0696C4.03175 7.4512 3.93613 7.888 3.90875 8.5268C3.88175 9.1664 3.875 9.37 3.875 11C3.875 12.63 3.88138 12.8336 3.90875 13.4736C3.93613 14.1124 4.03137 14.5488 4.1705 14.9304C4.3115 15.3304 4.53275 15.6932 4.81925 15.9932C5.10018 16.2983 5.44007 16.5344 5.81525 16.6852C6.173 16.8332 6.58212 16.9348 7.181 16.964C7.781 16.9932 7.97225 17 9.5 17C11.0278 17 11.219 16.9932 11.819 16.964C12.4179 16.9348 12.827 16.8332 13.1847 16.6848C13.5597 16.5344 13.8999 16.2984 14.1811 15.9928C14.4672 15.6931 14.6886 15.3306 14.8299 14.9304C14.9686 14.5488 15.0639 14.1124 15.0912 13.4736C15.1186 12.8336 15.125 12.6296 15.125 11C15.125 9.3704 15.1186 9.1664 15.0912 8.5264C15.0639 7.8876 14.9686 7.4512 14.8295 7.0696C14.6883 6.66923 14.4669 6.30653 14.1807 6.0068C13.8998 5.70169 13.5599 5.46554 13.1847 5.3148C12.827 5.1672 12.4175 5.0652 11.8186 5.036C11.219 5.0072 11.0281 5 9.5 5ZM9.5 6.0812C11.0019 6.0812 11.18 6.0872 11.7733 6.116C12.3215 6.1428 12.6193 6.24 12.8176 6.3228C13.0801 6.4312 13.2676 6.5616 13.4645 6.7712C13.6614 6.9812 13.7832 7.1812 13.8849 7.4612C13.9621 7.6728 14.0536 7.9904 14.0787 8.5752C14.1058 9.208 14.1114 9.398 14.1114 11C14.1114 12.602 14.1058 12.792 14.0787 13.4248C14.0536 14.0096 13.9625 14.3272 13.8849 14.5388C13.7949 14.7994 13.6512 15.0352 13.4645 15.2288C13.283 15.428 13.062 15.5812 12.8176 15.6772C12.6193 15.7596 12.3215 15.8572 11.7733 15.884C11.18 15.9128 11.0023 15.9188 9.5 15.9188C7.99775 15.9188 7.82 15.9128 7.22675 15.884C6.6785 15.8572 6.38075 15.76 6.18237 15.6772C5.93805 15.5812 5.717 15.428 5.5355 15.2288C5.34882 15.0352 5.20517 14.7994 5.11512 14.5388C5.03787 14.3272 4.94638 14.0096 4.92125 13.4248C4.89425 12.792 4.88863 12.602 4.88863 11C4.88863 9.398 4.89425 9.208 4.92125 8.5752C4.94638 7.9904 5.0375 7.6728 5.11512 7.4612C5.21675 7.1812 5.339 6.9812 5.5355 6.7712C5.71698 6.57202 5.93803 6.41879 6.18237 6.3228C6.38075 6.2404 6.6785 6.1428 7.22675 6.116C7.82 6.0872 7.99813 6.0812 9.5 6.0812Z" fill="white"/>
<path fill-rule="evenodd" clip-rule="evenodd" d="M9.5 13.002C9.25352 13.002 9.00946 12.9502 8.78175 12.8496C8.55404 12.749 8.34713 12.6015 8.17285 12.4156C7.99856 12.2297 7.86031 12.009 7.76599 11.7661C7.67167 11.5232 7.62312 11.2629 7.62312 11C7.62312 10.7371 7.67167 10.4767 7.76599 10.2338C7.86031 9.99096 7.99856 9.77026 8.17285 9.58435C8.34713 9.39845 8.55404 9.25098 8.78175 9.15037C9.00946 9.04976 9.25352 8.99798 9.5 8.99798C9.99778 8.99798 10.4752 9.20891 10.8271 9.58435C11.1791 9.9598 11.3769 10.469 11.3769 11C11.3769 11.5309 11.1791 12.0402 10.8271 12.4156C10.4752 12.7911 9.99778 13.002 9.5 13.002ZM9.5 7.91598C8.73319 7.91598 7.99779 8.2409 7.45558 8.81926C6.91336 9.39763 6.60875 10.1821 6.60875 11C6.60875 11.8179 6.91336 12.6023 7.45558 13.1807C7.99779 13.7591 8.73319 14.084 9.5 14.084C10.2668 14.084 11.0022 13.7591 11.5444 13.1807C12.0866 12.6023 12.3912 11.8179 12.3912 11C12.3912 10.1821 12.0866 9.39763 11.5444 8.81926C11.0022 8.2409 10.2668 7.91598 9.5 7.91598ZM13.2324 7.85998C13.2324 8.05332 13.1604 8.23875 13.0322 8.37546C12.904 8.51218 12.7302 8.58898 12.5489 8.58898C12.3677 8.58898 12.1938 8.51218 12.0657 8.37546C11.9375 8.23875 11.8655 8.05332 11.8655 7.85998C11.8655 7.66664 11.9375 7.48121 12.0657 7.3445C12.1938 7.20779 12.3677 7.13098 12.5489 7.13098C12.7302 7.13098 12.904 7.20779 13.0322 7.3445C13.1604 7.48121 13.2324 7.66664 13.2324 7.85998Z" fill="white"/>
<path d="M39.75 11.0404C39.75 7.33598 36.9521 4.33331 33.5 4.33331C30.0479 4.33331 27.25 7.33598 27.25 11.0404C27.25 14.3889 29.535 17.1635 32.5233 17.6666V12.9795H30.9367V11.04H32.5233V9.56265C32.5233 7.88176 33.4563 6.95287 34.8842 6.95287C35.5675 6.95287 36.2833 7.08398 36.2833 7.08398V8.73465H35.4946C34.7183 8.73465 34.4767 9.25198 34.4767 9.78265V11.0404H36.21L35.9329 12.9791H34.4767V17.6666C37.465 17.1635 39.75 14.3889 39.75 11.0404Z" fill="white"/>
<path d="M62.4703 8.28003C62.4779 8.39757 62.4779 8.51512 62.4779 8.63374C62.4779 12.2483 59.8982 16.4171 55.181 16.4171V16.4149C53.7876 16.4171 52.4231 15.9913 51.25 15.1886C51.4526 15.2146 51.6563 15.2276 51.8604 15.2281C53.0152 15.2292 54.137 14.8159 55.0454 14.0548C53.948 14.0326 52.9857 13.2694 52.6496 12.1552C53.034 12.2343 53.4301 12.218 53.8074 12.108C52.611 11.8502 51.7502 10.7289 51.7502 9.42675C51.7502 9.41484 51.7502 9.40346 51.7502 9.39209C52.1067 9.60388 52.5058 9.72143 52.9141 9.73443C51.7873 8.93112 51.4399 7.3321 52.1204 6.08191C53.4225 7.7909 55.3435 8.82983 57.4058 8.93979C57.1991 7.98969 57.4815 6.99409 58.1477 6.32621C59.1806 5.29052 60.8051 5.34361 61.7761 6.44483C62.3504 6.32404 62.9009 6.09924 63.4047 5.78074C63.2132 6.41396 62.8126 6.95184 62.2773 7.29364C62.7856 7.22972 63.2823 7.08455 63.75 6.86301C63.4057 7.41335 62.972 7.89273 62.4703 8.28003Z" fill="white"/>
<path d="M85.8318 6.76097C85.0351 6.37104 84.1807 6.08375 83.2874 5.91921C83.2712 5.91603 83.2549 5.92397 83.2465 5.93984C83.1367 6.14829 83.015 6.42024 82.9297 6.63398C81.969 6.48056 81.0131 6.48056 80.072 6.63398C79.9868 6.41549 79.8607 6.14829 79.7503 5.93984C79.7419 5.9245 79.7257 5.91656 79.7094 5.91921C78.8166 6.08322 77.9623 6.37051 77.1651 6.76097C77.1582 6.76414 77.1523 6.76944 77.1483 6.77631C75.5278 9.35874 75.0839 11.8777 75.3017 14.3654C75.3026 14.3776 75.309 14.3892 75.3179 14.3966C76.3871 15.2341 77.4228 15.7426 78.4392 16.0796C78.4555 16.0849 78.4727 16.0785 78.4831 16.0643C78.7235 15.714 78.9378 15.3447 79.1216 14.9564C79.1324 14.9336 79.1221 14.9066 79.0999 14.8976C78.76 14.7601 78.4363 14.5924 78.1249 14.4019C78.1002 14.3866 78.0983 14.349 78.1209 14.331C78.1864 14.2786 78.252 14.2241 78.3146 14.1691C78.3259 14.1591 78.3417 14.1569 78.355 14.1633C80.4007 15.1595 82.6154 15.1595 84.637 14.1633C84.6503 14.1564 84.666 14.1585 84.6779 14.1686C84.7404 14.2236 84.806 14.2786 84.872 14.331C84.8946 14.349 84.8932 14.3866 84.8685 14.4019C84.5571 14.5961 84.2334 14.7601 83.893 14.8971C83.8708 14.9061 83.861 14.9336 83.8718 14.9564C84.0595 15.3442 84.2738 15.7135 84.5098 16.0637C84.5197 16.0785 84.5374 16.0849 84.5537 16.0796C85.5751 15.7426 86.6107 15.2341 87.6799 14.3966C87.6893 14.3892 87.6952 14.3781 87.6962 14.3659C87.9568 11.4899 87.2596 8.99156 85.848 6.77684C85.8446 6.76944 85.8387 6.76414 85.8318 6.76097ZM79.4271 12.8506C78.8112 12.8506 78.3037 12.2475 78.3037 11.5068C78.3037 10.7661 78.8014 10.1629 79.4271 10.1629C80.0577 10.1629 80.5603 10.7714 80.5505 11.5068C80.5505 12.2475 80.0528 12.8506 79.4271 12.8506ZM83.5806 12.8506C82.9647 12.8506 82.4572 12.2475 82.4572 11.5068C82.4572 10.7661 82.9549 10.1629 83.5806 10.1629C84.2113 10.1629 84.7138 10.7714 84.704 11.5068C84.704 12.2475 84.2113 12.8506 83.5806 12.8506Z" fill="white"/>
</svg>
